<?xml version="1.0" standalone="no"?>
<!DOCTYPE svg PUBLIC "-//W3C//DTD SVG 20010904//EN"
 "http://www.w3.org/TR/2001/REC-SVG-20010904/DTD/svg10.dtd">
<svg version="1.0" xmlns="http://www.w3.org/2000/svg"
 width="512.000000pt" height="512.000000pt" viewBox="0 0 512.000000 512.000000"
 preserveAspectRatio="xMidYMid meet">
<metadata>
Created by potrace 1.11, written by Peter Selinger 2001-2013
</metadata>
<g transform="translate(0.000000,512.000000) scale(0.100000,-0.100000)"
fill="#000000" stroke="none">
<path d="M1697 4988 c-23 -138 -30 -180 -43 -253 -1 -11 -30 -186 -64 -390
-33 -203 -63 -381 -65 -395 -2 -14 -7 -43 -10 -65 -4 -22 -15 -89 -25 -150
-11 -60 -21 -123 -23 -140 -3 -16 -10 -57 -15 -90 -20 -110 -21 -126 -8 -163
7 -21 11 -50 10 -67 -12 -143 -9 -171 27 -230 18 -32 56 -76 82 -99 90 -76 93
-113 20 -208 -27 -35 -60 -85 -72 -113 -13 -27 -29 -64 -37 -80 -8 -17 -29
-48 -47 -69 -19 -21 -40 -55 -47 -75 -23 -68 -60 -121 -101 -143 -26 -16 -46
-38 -61 -68 -11 -25 -29 -54 -38 -65 -24 -28 -40 -80 -40 -129 0 -54 8 -64 61
-79 39 -11 44 -16 47 -45 2 -18 -4 -54 -12 -80 -8 -26 -17 -64 -19 -85 -2 -21
-11 -47 -20 -58 -16 -18 -21 -38 -33 -114 -3 -16 -7 -39 -8 -50 -2 -11 -7 -40
-10 -65 -3 -25 -11 -70 -16 -100 -11 -63 -13 -79 -35 -210 -8 -52 -17 -106
-19 -120 -6 -34 -27 -170 -31 -195 -1 -11 -10 -65 -19 -120 -10 -55 -19 -113
-22 -130 -2 -16 -6 -41 -9 -55 -15 -88 -15 -100 3 -101 9 0 26 -2 37 -4 11 -1
47 -6 80 -9 33 -4 67 -9 75 -11 8 -2 47 -7 85 -11 39 -3 72 -8 75 -9 3 -2 34
-6 70 -10 36 -4 72 -9 81 -10 9 -2 40 -6 70 -9 49 -6 150 -19 237 -31 18 -3
54 -7 80 -10 26 -3 58 -7 72 -10 14 -2 43 -7 65 -9 22 -3 58 -8 80 -10 22 -3
58 -8 80 -11 104 -13 208 -27 229 -31 37 -7 133 -18 246 -28 41 -4 86 -9 100
-11 14 -2 50 -7 80 -10 93 -9 154 -16 180 -20 14 -3 55 -7 90 -10 36 -2 74 -7
85 -9 11 -2 56 -7 100 -11 44 -5 87 -9 95 -10 8 -2 49 -6 90 -9 41 -4 86 -9
100 -11 14 -2 50 -7 80 -10 125 -12 157 -16 190 -20 107 -14 140 -16 141 -8 3
28 7 68 13 138 7 85 14 161 31 350 2 28 7 79 10 115 3 36 8 92 10 125 3 33 8
80 10 105 3 25 7 79 10 120 3 41 8 98 10 125 3 28 8 75 10 105 5 74 14 185 20
240 3 25 7 74 10 110 3 36 8 91 10 122 5 49 3 58 -14 70 -11 8 -30 39 -41 69
-14 37 -31 61 -49 72 -26 15 -29 15 -49 -4 -12 -11 -31 -37 -41 -57 l-19 -38
-69 4 c-37 2 -95 5 -128 7 -33 2 -82 9 -108 16 -38 11 -51 11 -65 1 -45 -33
-73 -39 -125 -29 -93 19 -118 16 -136 -17 -23 -41 -34 -42 -65 -6 -24 30 -31
48 -27 77 1 7 -4 23 -11 35 -6 13 -12 44 -13 70 -1 39 -6 51 -30 72 -29 25
-44 30 -73 27 -8 -1 -24 5 -38 14 -19 12 -24 24 -23 53 0 20 4 46 8 57 12 29
-4 83 -37 130 -35 49 -48 90 -56 165 -13 116 -45 185 -97 203 -19 6 -99 -33
-137 -68 -30 -28 -70 -33 -78 -10 -3 8 -21 23 -39 34 -18 11 -38 28 -43 38
-15 27 26 115 72 158 29 26 36 39 30 52 -4 10 -8 59 -9 108 -1 77 3 98 25 150
15 33 38 93 51 133 25 80 21 92 -30 92 -15 0 -39 15 -62 40 -21 22 -50 45 -64
50 -14 5 -25 16 -25 24 0 8 -10 23 -23 33 -31 24 -39 39 -44 82 -10 76 -101
226 -163 267 -21 14 -43 38 -50 53 -6 16 -23 34 -37 40 -20 9 -24 17 -20 38 6
33 -9 159 -25 198 -6 17 -33 66 -60 111 l-49 81 21 134 c12 74 26 163 31 199
5 36 19 118 30 184 11 65 18 120 16 122 -1 2 -23 6 -47 9 -25 3 -52 7 -60 9
-8 3 -42 7 -75 11 -33 3 -67 8 -75 10 -8 2 -37 6 -65 10 -27 3 -64 8 -81 11
l-30 6 -17 -104z"/>
</g>
</svg>
