<svg id="_14d05119-285d-4608-87a5-e3450bf49ec1" data-name="14d05119-285d-4608-87a5-e3450bf49ec1" xmlns="http://www.w3.org/2000/svg" width="0.22in" height="0.06in" viewBox="0 0 15.81 4.44"><title>Artboard 1</title><path d="M4.37,3.18A2.33,2.33,0,0,1,3,3.56a2,2,0,0,1-.49-.06c0-.24,0-1,0-1.22V2.11c0-.18,0-1,0-1.26l.3,0a3,3,0,0,1,1.65.34,1.07,1.07,0,0,1,.45,1,1.26,1.26,0,0,1-.56,1M2.16.55l-.63,0V.66a2.46,2.46,0,0,1,.34.09c0,.19,0,.86,0,1.14v.35c0,.69,0,1.33,0,1.39l0,.13v.06l0,.06h1c2,0,2.77-1.07,2.77-2A1.28,1.28,0,0,0,4.69.74,4.15,4.15,0,0,0,3.24.54H2.16"/><path d="M15.17,2.29a1.43,1.43,0,0,0-.43-1A1.57,1.57,0,0,0,13.61.83,1.26,1.26,0,0,0,12.2,2.08a1.42,1.42,0,0,0,.45,1,1.61,1.61,0,0,0,1.18.48,1.36,1.36,0,0,0,1-.35,1.26,1.26,0,0,0,.35-.93M12.11,3.42a1.45,1.45,0,0,1-.49-1.15,1.68,1.68,0,0,1,.5-1.17A2.24,2.24,0,0,1,13.73.48a2.34,2.34,0,0,1,1.43.38A1.45,1.45,0,0,1,15.81,2a2,2,0,0,1-2.16,1.89,2.13,2.13,0,0,1-1.54-.52"/><path d="M1.06.72c.18,0,.24,0,.34-.06V.54H0L0,.66.34.72c0,.24,0,1,0,1.2v.74c0,.44-.07,1.52-.08,1.7v.06l.8-.24V4.11c0-.05,0-.45,0-1.42V1.94c0-.72,0-1.12,0-1.22"/><path d="M11.39.73c.15,0,.22-.07.31-.07l0-.12H10.39l0,.12a1,1,0,0,1,.29.06c0,.18,0,.81,0,1.09V2h-2V1.81c0-.33,0-.91,0-1.09A.84.84,0,0,1,9,.66L9,.54H7.77l0,.12a1.7,1.7,0,0,1,.31.06h0c0,.23,0,1,0,1.19v.74c0,.47,0,1.07,0,1.25h0l.6-.18h0v0c0-.16,0-.81,0-1.25V2.23l2-.07v.28a11.81,11.81,0,0,1,0,1.19v.11h.76V3.63c0-.13,0-.8,0-1.4V1.91c0-.2,0-1,0-1.18"/><path d="M6,2c.11-.32.29-.76.36-.91L6.73,2ZM7.52,4.09l.62-.18,0-.06a5.4,5.4,0,0,1-.25-.55c-.06-.14-.16-.41-.26-.68S7.35,2,7.32,2,6.6.05,6.6,0V0s-.1.25-.22.56C5.93,1.71,5.05,4,4.82,4.44l.49-.24c.09-.38.4-1.27.54-1.65l.07-.2v0L6,2.2l.83,0c0,.08.37.95.3.74Z"/></svg>