<svg id="_14d05119-285d-4608-87a5-e3450bf49ec1" data-name="14d05119-285d-4608-87a5-e3450bf49ec1" xmlns="http://www.w3.org/2000/svg" width="3.76in" height="2.02in" viewBox="0 0 271.04 145.74"><defs><style>.cls-1{fill:#fff;}</style></defs><title>Artboard 1</title><path class="cls-1" d="M147.64,57.69c-.44.63-.17,1.16.6,1.17l4.31.08a2,2,0,0,0,1.82-1.3l5.16-16.25c.24-.73.07-.82-.37-.18Z"/><path class="cls-1" d="M85.42,58.66c-.54.56-.35,1,.42,1l8.88-.34A2.84,2.84,0,0,0,96.82,58L112.34,31.6c.38-.68.27-.75-.28-.2Z"/><path class="cls-1" d="M109.52,16a1.93,1.93,0,0,1,2.21-.19l5.21,3.34a2,2,0,0,0,2.21-.18L133.61,5.91c.57-.51.73-.38.36.29L105.73,57.76c-.37.69,0,1.21.73,1.2,0,0,14.94-.25,23.5-.25h1.09a3.7,3.7,0,0,0,2.35-1l34.17-36.26c.53-.56.82-.4.69.34l-8,36a1.14,1.14,0,0,0,.77,1.41,1.17,1.17,0,0,0,.32,0l60.35,4.37c.77.08.94-.29.38-.82L172,15.06a1.6,1.6,0,0,0-2.07-.05l-4.74,4a2,2,0,0,1-2.23.12L135.34.3a2,2,0,0,0-2.24.09l-14.73,11.7a2.12,2.12,0,0,1-2.27.12l-3.14-2a2.06,2.06,0,0,0-2.26.14L49,61.39c-.59.49-.45.83.31.75l9.47-.87a4.89,4.89,0,0,0,2.43-1.06Z"/><path class="cls-1" d="M74.9,124.07c-6,4.22-14.18,6.58-23.13,6.58a38.86,38.86,0,0,1-8.45-1.12c-.3-4.07-.52-17.35-.52-20.85v-3c0-3.13.26-17.77.51-21.58a44.39,44.39,0,0,1,5.16-.32c13.26,0,22.53,1.93,28.37,5.91,6.72,4.58,7.62,10.92,7.62,16.52,0,7.21-3.31,13.37-9.56,17.83M37.09,79c-2.46,0-9.64-.13-10.94-.29l-.07,2.18c2,.14,3.62,1,5.83,1.45.24,3.31.43,14.86.43,19.58v6c0,11.84-.23,22.71-.56,23.76L31.21,134,31,135l-.28,1.09,1.11-.08,1.12-.09h.45l14.53-.06c35,0,47.38-18.32,47.38-34,0-8.42-5.43-15.57-14.9-19.59-5.22-2.22-14.45-3.56-24.78-3.56-3.17,0-7.73.11-11.8.17-2.94.06-5.51.13-6.72.13"/><path class="cls-1" d="M260,108.89a24.32,24.32,0,0,0-7.26-17.33,27.24,27.24,0,0,0-19.38-7.83c-11.15,0-24.15,5.6-24.15,21.41a24.91,24.91,0,0,0,7.61,17.36A28.29,28.29,0,0,0,237,130.83c7.32,0,13.08-2.06,17.1-6.06C257.91,121,260,115.3,260,108.9m-52.41,19.2c-5.94-5.66-8.47-11.54-8.47-19.66a28.24,28.24,0,0,1,8.63-20c6.89-6.89,16.69-10.71,27.54-10.71,7.74,0,16.09.78,24.5,6.47A24.86,24.86,0,0,1,271,104.52c0,18.78-15.57,32.41-37,32.41-11.51,0-20.16-2.9-26.42-8.86"/><path class="cls-1" d="M18.24,81.92c3.05-.3,4.13-.83,5.84-1l.08-2.18c-1.45.16-7.78.32-12.12.32-3.44,0-10.42-.16-12-.32l.47,2.17c1.63.15,3.67.68,5.38,1,.24,4.13.33,17.63.33,20.5v12.72c0,7.57-1.13,26.11-1.46,29.19l-.11.92,13.65-4,.31-.29-.09-.47-.1-.45c-.17-.8-.39-7.65-.39-24.28V102.81c0-12.34.13-19.15.25-20.91"/><path class="cls-1" d="M195.31,82c2.45-.31,3.62-1,5.32-1.19l.52-2.07c-1.54.16-6.68.28-10.93.28-3.3,0-10.59-.12-12.05-.28l.42,2.07a21.33,21.33,0,0,1,4.92,1.08c.31,3.17.41,13.91.41,18.76v3.07c-7.47-.07-28.66,0-34.91,0v-3.07c0-5.79.24-15.59.51-18.76a20.29,20.29,0,0,1,4.82-1.08l.44-2.07c-1.37.16-6.59.28-10.83.28-3.24,0-9.31-.12-10.75-.28l.43,2.07a28,28,0,0,1,5.42,1.08h0c.24,4,.35,17.5.35,20.43v12.62c0,8.1.22,18.44-.06,21.47v.24l10.38-3.09v-.27l-.05-.41c-.35-2.81-.63-13.94-.63-21.54l0-3.6c2.75,0,30.49-1.17,34.95-1.13v4.76c0,8,0,18-.47,20.48l-.19.94-.19,1h13.08l-.22-1-.23-1c-.49-2.19-.69-13.7-.69-24.09v-5.34c0-3.49.07-16.75.34-20.34"/><path class="cls-1" d="M103.46,103.82c2-5.5,5-13.08,6.2-15.58l5.76,15.58ZM129,139.68l10.47-3.13-.62-1c0-.06-2-3.79-4.31-9.39-1-2.42-2.75-7.1-4.48-11.62-2.06-5.46-4-10.58-4.51-11.54-.64-1.3-12.32-32.64-12.44-32.94l-.18-.49-.19.47c-.29.68-1.66,4.25-3.73,9.63-7.38,19.15-22.39,58.08-26.32,66.09L91,141.61c1.58-6.55,6.94-21.75,9.26-28.34.65-1.81,1.08-3,1.19-3.39.06-.18.14-.39.24-.69s.47-1.55.59-1.91l14.24-.75c.6,1.44,6.45,16.26,5.18,12.68Z"/></svg>